<svg enable-background="new 0 0 58 58" height="512" viewBox="0 0 58 58" width="512" xmlns="http://www.w3.org/2000/svg"><path clip-rule="evenodd" d="m54.5 58h-51c-1.933 0-3.5-1.567-3.5-3.5v-44.5h58v44.5c0 1.933-1.567 3.5-3.5 3.5z" fill="#e7eced" fill-rule="evenodd"/><path d="m4 16h50v38h-50z" fill="#dc691d"/><path clip-rule="evenodd" d="m58 12h-58v-8.5c0-1.933 1.567-3.5 3.5-3.5h51c1.933 0 3.5 1.567 3.5 3.5z" fill="#43566b" fill-rule="evenodd"/><path d="m4 4h4v4h-4z" fill="#dd352e"/><path d="m12 4h4v4h-4z" fill="#ebba16"/><path d="m20 4h4v4h-4z" fill="#23a24d"/><path d="m8 25c-.552 0-1-.448-1-1v-4c0-.552.448-1 1-1h4c.552 0 1 .448 1 1s-.448 1-1 1h-3v3c0 .552-.448 1-1 1z" fill="#c5411e"/><path d="m50 51h-4c-.552 0-1-.448-1-1s.448-1 1-1h3v-3c0-.552.448-1 1-1s1 .448 1 1v4c0 .552-.448 1-1 1z" fill="#c5411e"/><path d="m43 47h-28l14-24z" fill="#ebba16"/><g fill="#fff"><path d="m29 39c-.552 0-1-.448-1-1v-8c0-.552.448-1 1-1s1 .448 1 1v8c0 .552-.448 1-1 1z"/><path d="m29 44c-.552 0-1-.448-1-1v-1c0-.552.448-1 1-1s1 .448 1 1v1c0 .552-.448 1-1 1z"/></g></svg>